<svg xmlns="http://www.w3.org/2000/svg" xmlns:xlink="http://www.w3.org/1999/xlink" viewBox="0 0 100 125" version="1.1" x="0px" y="0px"><title>cog</title><desc>Created with Sketch.</desc><g stroke="none" stroke-width="2" fill="#ffffff" fill-rule="evenodd"><g stroke="#ffffff"><path d="M38.4871143,5 C34.1567065,6.10457956 30.0696266,7.81778317 26.3223503,10.043135 C28.127304,15.2278431 27.4403988,20.5680132 24.0042061,24.0042063 C20.568013,27.440399 15.2278429,28.1273041 10.0431349,26.3223505 C7.81778322,30.0696267 6.10457952,34.1567067 5,38.4871144 C9.94444086,40.8766326 13.2363956,45.1393083 13.2363956,50.0000001 C13.2363956,54.8606915 9.94444086,59.1233676 5,61.5128858 C6.10457952,65.8432936 7.81778322,69.9303735 10.0431349,73.6776494 C15.2278429,71.8726961 20.568013,72.5596008 24.0042061,75.9957939 C27.4403988,79.431987 28.127304,84.7721571 26.3223503,89.9568651 C30.0696266,92.1822168 34.1567065,93.8954205 38.4871143,95 C40.8766325,90.0555591 45.1393086,86.7636044 50,86.7636044 C54.8606914,86.7636044 59.1233675,90.0555591 61.5128857,95 C65.8432935,93.8954205 69.9303734,92.1822168 73.6776497,89.9568651 C71.872696,84.7721571 72.5596012,79.431987 75.9957939,75.9957939 C79.431987,72.5596008 84.7721571,71.8726961 89.9568651,73.6776494 C92.1822168,69.9303735 93.8954205,65.8432936 95,61.5128858 C90.0555591,59.1233676 86.7636044,54.8606915 86.7636044,50.0000001 C86.7636044,45.1393083 90.0555591,40.8766326 95,38.4871144 C93.8954205,34.1567067 92.1822168,30.0696267 89.9568651,26.3223505 C84.7721571,28.1273041 79.431987,27.440399 75.9957939,24.0042063 C72.5596012,20.5680132 71.872696,15.2278431 73.6776497,10.043135 C69.9303734,7.81778317 65.8432935,6.10457956 61.5128857,5 C59.1233675,9.94444101 54.8606914,13.2363958 50,13.2363958 C45.1393086,13.2363958 40.8766325,9.94444101 38.4871143,5 Z M50,67.414339 C59.6176739,67.414339 67.4143389,59.617674 67.4143389,50.0000001 C67.4143389,40.3823262 59.6176739,32.5856613 50,32.5856613 C40.3823261,32.5856613 32.5856611,40.3823262 32.5856611,50.0000001 C32.5856611,59.617674 40.3823261,67.414339 50,67.414339 Z"/></g></g></svg>