<?xml version="1.0" encoding="UTF-8" standalone="no" ?>
<!DOCTYPE svg PUBLIC "-//W3C//DTD SVG 1.1//EN" "http://www.w3.org/Graphics/SVG/1.1/DTD/svg11.dtd">
<svg xmlns="http://www.w3.org/2000/svg" xmlns:xlink="http://www.w3.org/1999/xlink" version="1.1" width="1080" height="1080" viewBox="0 0 1080 1080" xml:space="preserve">
<desc>Created with Fabric.js 5.2.4</desc>
<defs>
</defs>
<g transform="matrix(1 0 0 1 540 540)" id="d31c54d5-b99a-4233-9402-bf4589a32bfb"  >
<rect style="stroke: none; stroke-width: 1; stroke-dasharray: none; stroke-linecap: butt; stroke-dashoffset: 0; stroke-linejoin: miter; stroke-miterlimit: 4; fill: rgb(255,255,255); fill-rule: nonzero; opacity: 1; visibility: hidden;" vector-effect="non-scaling-stroke"  x="-540" y="-540" rx="0" ry="0" width="1080" height="1080" />
</g>
<g transform="matrix(1 0 0 1 540 540)" id="1f71bf0a-9cea-48c8-80cd-bffa5f8bac80"  >
</g>
<g transform="matrix(0.13 0 0 -0.13 540 469.95)" id="path14"  >
<path style="stroke: none; stroke-width: 1; stroke-dasharray: none; stroke-linecap: butt; stroke-dashoffset: 0; stroke-linejoin: miter; stroke-miterlimit: 4; fill: rgb(255,255,255); fill-rule: evenodd; opacity: 1;" vector-effect="non-scaling-stroke"  transform=" translate(-2838.91, -3515.9)" d="M 2838.91 4200.54 L 2838.91 4200.54 C 2817.37 4200.5199999999995 2799.73 4218.13 2799.73 4239.7 L 2799.75 4510.41 C 2799.75 4531.93 2817.37 4549.61 2838.91 4549.61 L 2838.91 4549.61 C 2860.48 4549.61 2878.08 4531.929999999999 2878.08 4510.41 L 2878.08 4239.7 C 2878.08 4218.13 2860.48 4200.51 2838.91 4200.54 z M 3346.8399999999997 4064.38 L 3346.8399999999997 4064.38 C 3328.2099999999996 4075.1400000000003 3321.7099999999996 4099.27 3332.5199999999995 4117.92 L 3467.8399999999997 4352.36 C 3478.5899999999997 4371.0199999999995 3502.68 4377.46 3521.3399999999997 4366.7 L 3521.3399999999997 4366.7 C 3540.0199999999995 4355.91 3546.47 4331.8099999999995 3535.6699999999996 4313.16 L 3400.3499999999995 4078.71 C 3389.5899999999992 4060.07 3365.4999999999995 4053.62 3346.8399999999992 4064.38 z M 3718.68 3692.42 L 3718.68 3692.42 C 3707.91 3711.08 3714.37 3735.17 3733.02 3745.96 L 3967.43 3881.34 C 3986.04 3892.13 4010.2 3885.6800000000003 4020.93 3867.01 L 4020.93 3867.01 C 4031.69 3848.3 4025.2599999999998 3824.21 4006.56 3813.4500000000003 L 3772.22 3678.11 C 3753.54 3667.36 3729.47 3673.79 3718.68 3692.42 z M 3854.7999999999997 3184.38 L 3854.7999999999997 3184.38 C 3854.7999999999997 3205.9300000000003 3872.4599999999996 3223.52 3893.93 3223.52 L 4164.61 3223.52 C 4186.15 3223.53 4203.7699999999995 3205.93 4203.7699999999995 3184.38 L 4203.7699999999995 3184.38 C 4203.7699999999995 3162.82 4186.12 3145.2000000000003 4164.589999999999 3145.2000000000003 L 3893.9499999999994 3145.2000000000003 C 3872.4599999999996 3145.2000000000003 3854.7999999999993 3162.7900000000004 3854.7999999999993 3184.38 z M 3718.68 2676.29 L 3718.68 2676.29 C 3729.45 2694.94 3753.54 2701.43 3772.18 2690.62 L 4006.5699999999997 2555.2799999999997 C 4025.2599999999998 2544.45 4031.6899999999996 2520.43 4020.91 2501.74 L 4020.91 2501.74 C 4010.16 2483.0699999999997 3986.02 2476.64 3967.41 2487.41 L 3733 2622.79 C 3714.37 2633.55 3707.91 2657.62 3718.68 2676.29 z M 1959.1499999999999 2676.31 L 1959.1499999999999 2676.31 C 1969.9199999999998 2657.62 1963.4599999999998 2633.5499999999997 1944.82 2622.79 L 1710.4199999999998 2487.41 C 1691.7899999999997 2476.64 1667.6999999999998 2483.0899999999997 1656.8899999999999 2501.74 L 1656.8899999999999 2501.74 C 1646.1399999999999 2520.43 1652.59 2544.47 1671.27 2555.2799999999997 L 1905.63 2690.62 C 1924.2900000000002 2701.43 1948.38 2694.96 1959.15 2676.31 z M 1823.04 3184.38 L 1823.04 3184.38 C 1823.02 3162.82 1805.44 3145.21 1783.8799999999999 3145.21 L 1513.2199999999998 3145.2 C 1491.6899999999998 3145.21 1474.0499999999997 3162.8199999999997 1474.0499999999997 3184.3799999999997 L 1474.0499999999997 3184.3799999999997 C 1474.0499999999997 3205.93 1491.6899999999998 3223.5199999999995 1513.2199999999998 3223.5199999999995 L 1783.8599999999997 3223.5199999999995 C 1805.3699999999997 3223.5199999999995 1823.0199999999998 3205.9299999999994 1823.0399999999997 3184.3799999999997 z M 1959.15 3692.42 L 1959.15 3692.42 C 1948.3600000000001 3673.79 1924.2900000000002 3667.3 1905.63 3678.11 L 1671.25 3813.4500000000003 C 1652.59 3824.2300000000005 1646.12 3848.2900000000004 1656.89 3866.9900000000002 L 1656.89 3866.9900000000002 C 1667.7 3885.6600000000003 1691.7900000000002 3892.1000000000004 1710.42 3881.34 L 1944.8400000000001 3745.96 C 1963.46 3735.19 1969.92 3711.09 1959.15 3692.42 z M 2330.98 4064.4 L 2330.98 4064.4 C 2312.32 4053.6 2288.25 4060.07 2277.48 4078.71 L 2142.14 4313.18 C 2131.35 4331.8 2137.7999999999997 4355.91 2156.48 4366.700000000001 L 2156.48 4366.700000000001 C 2175.15 4377.460000000001 2199.25 4371.02 2209.9900000000002 4352.360000000001 L 2345.3100000000004 4117.920000000001 C 2356.1200000000003 4099.290000000001 2349.6300000000006 4075.140000000001 2330.9800000000005 4064.400000000001" stroke-linecap="round" />
</g>
</svg>