<?xml version="1.0" encoding="utf-8"?>
<svg viewBox="0 0 755.90668 755.90668" xmlns="http://www.w3.org/2000/svg">
  <g id="g8" transform="matrix(1.3333332538604736, 0, 0, -1.3333332538604736, 5.684341886080802e-14, 755.9066772460936)">
    <g id="g10" transform="scale(0.1)">
      <path d="M 2899.01 1431.5 C 2940.49 1431.5 2974.13 1465.13 2974.13 1506.62 L 2703.69 1506.62 C 2703.69 1465.13 2737.33 1431.5 2778.82 1431.5 Z M 2838.91 3903.02 C 2424.09 3903.02 2087.69 3566.62 2087.69 3151.81 C 2087.69 2683.35 2455.97 2615.61 2455.97 2106.12 C 2455.97 2080.93 2476.58 2044.37 2506.54 2024.36 L 2510.91 1950.23 C 2496.32 1945.07 2485.85 1931.15 2485.85 1914.8 C 2485.85 1896.9 2498.39 1881.92 2515.16 1878.15 L 2517.78 1833.88 C 2503.51 1828.55 2493.35 1814.8 2493.35 1798.68 C 2493.35 1781.01 2505.56 1766.19 2522 1762.18 L 2524.64 1717.49 C 2510.72 1711.99 2500.87 1698.41 2500.87 1682.54 C 2500.87 1665.12 2512.75 1650.46 2528.85 1646.22 L 2531.11 1607.91 C 2533.24 1571.59 2574.18 1541.78 2625.73 1541.78 L 3052.11 1541.78 C 3103.66 1541.78 3144.63 1572.08 3146.74 1607.91 L 3150.8 1676.8 C 3165.97 1681.63 3176.97 1695.83 3176.97 1712.59 C 3176.97 1727.79 3167.92 1740.89 3154.93 1746.8 L 3157.64 1792.73 C 3173.15 1797.35 3184.47 1811.73 3184.47 1828.73 C 3184.47 1844.18 3175.13 1857.45 3161.8 1863.22 L 3164.48 1908.65 C 3180.34 1913.04 3192 1927.59 3192 1944.85 C 3192 1960.55 3182.35 1974.01 3168.66 1979.62 L 3171.3 2024.36 C 3201.24 2044.35 3221.84 2080.88 3221.84 2106.12 C 3221.84 2615.63 3590.14 2683.35 3590.14 3151.81 C 3590.14 3566.62 3253.72 3903.02 2838.91 3903.02 Z M 2590.29 1880.43 L 3088.95 1904.17 L 3086.55 1863.35 L 2592.71 1839.26 Z M 3093.4 1979.5 L 2585.86 1955.34 L 2582.64 2009.94 L 3095.2 2009.94 Z M 2597.13 1764.35 L 3082.1 1788.01 L 3079.7 1747.17 L 2599.56 1723.16 Z M 2603.98 1648.26 L 3075.25 1671.82 L 3072.26 1621.16 C 3066.52 1618.14 3057.1 1616.89 3052.11 1616.89 L 2625.73 1616.89 C 2620.8 1616.89 2611.36 1618.08 2605.58 1621.03 Z M 3156.441 3278.117 C 3157.815 3275.419 3157.475 3271.432 3155.994 3266.571 C 3153.79 3271.989 3151.613 3277.239 3149.483 3282.326 C 3152.754 3281.778 3155.214 3280.528 3156.441 3278.117 Z" style="fill:#ffffff;fill-opacity:1;fill-rule:evenodd;stroke:none" id="path16"/>
    </g>
  </g>
</svg>