<?xml version="1.0" encoding="utf-8"?>
<svg viewBox="0 0 755.90668 755.90668" xmlns="http://www.w3.org/2000/svg">
  <g id="g8" transform="matrix(1.3333332538604736, 0, 0, -1.3333332538604736, -7.105427357601002e-15, 755.9066772460936)">
    <g id="g10" transform="scale(0.1)">
      <path d="M 4.26953,0 H 5673.56 V 5669.29 H 4.26953 V 0" style="fill:#ffffff;fill-opacity:0;fill-rule:evenodd;stroke:none" id="path12"/>
      <path d="m 2838.91,4200.54 v 0 c -21.54,-0.02 -39.18,17.59 -39.18,39.16 l 0.02,270.71 c 0,21.52 17.62,39.2 39.16,39.2 v 0 c 21.57,0 39.17,-17.68 39.17,-39.2 V 4239.7 c 0,-21.57 -17.6,-39.19 -39.17,-39.16 z m 507.93,-136.16 v 0 c -18.63,10.76 -25.13,34.89 -14.32,53.54 l 135.32,234.44 c 10.75,18.66 34.84,25.1 53.5,14.34 v 0 c 18.68,-10.79 25.13,-34.89 14.33,-53.54 l -135.32,-234.45 c -10.76,-18.64 -34.85,-25.09 -53.51,-14.33 z m 371.84,-371.96 v 0 c -10.77,18.66 -4.31,42.75 14.34,53.54 l 234.41,135.38 c 18.61,10.79 42.77,4.34 53.5,-14.33 v 0 c 10.76,-18.71 4.33,-42.8 -14.37,-53.56 l -234.34,-135.34 c -18.68,-10.75 -42.75,-4.32 -53.54,14.31 z m 136.12,-508.04 v 0 c 0,21.55 17.66,39.14 39.13,39.14 h 270.68 c 21.54,0.01 39.16,-17.59 39.16,-39.14 v 0 c 0,-21.56 -17.65,-39.18 -39.18,-39.18 h -270.64 c -21.49,0 -39.15,17.59 -39.15,39.18 z m -136.12,-508.09 v 0 c 10.77,18.65 34.86,25.14 53.5,14.33 l 234.39,-135.34 c 18.69,-10.83 25.12,-34.85 14.34,-53.54 v 0 c -10.75,-18.67 -34.89,-25.1 -53.5,-14.33 L 3733,2622.79 c -18.63,10.76 -25.09,34.83 -14.32,53.5 z m -1759.53,0.02 v 0 c 10.77,-18.69 4.31,-42.76 -14.33,-53.52 l -234.4,-135.38 c -18.63,-10.77 -42.72,-4.32 -53.53,14.33 v 0 c -10.75,18.69 -4.3,42.73 14.38,53.54 l 234.36,135.34 c 18.66,10.81 42.75,4.34 53.52,-14.31 z m -136.11,508.07 v 0 c -0.02,-21.56 -17.6,-39.17 -39.16,-39.17 l -270.66,-0.01 c -21.53,0.01 -39.17,17.62 -39.17,39.18 v 0 c 0,21.55 17.64,39.14 39.17,39.14 h 270.64 c 21.51,0 39.16,-17.59 39.18,-39.14 z m 136.11,508.04 v 0 c -10.79,-18.63 -34.86,-25.12 -53.52,-14.31 l -234.38,135.34 c -18.66,10.78 -25.13,34.84 -14.36,53.54 v 0 c 10.81,18.67 34.9,25.11 53.53,14.35 l 234.42,-135.38 c 18.62,-10.77 25.08,-34.87 14.31,-53.54 z m 371.83,371.98 v 0 c -18.66,-10.8 -42.73,-4.33 -53.5,14.31 l -135.34,234.47 c -10.79,18.62 -4.34,42.73 14.34,53.52 v 0 c 18.67,10.76 42.77,4.32 53.51,-14.34 l 135.32,-234.44 c 10.81,-18.63 4.32,-42.78 -14.33,-53.52" style="fill:#ffffff;fill-opacity:1;fill-rule:evenodd;stroke:none" id="path14"/>
      <path d="m 2778.82,1431.5 c -41.49,0 -75.13,33.63 -75.13,75.12 h 270.44 c 0,-41.49 -33.64,-75.12 -75.12,-75.12 h -120.19 z m 60.09,2471.52 c -414.82,0 -751.22,-336.4 -751.22,-751.21 0,-468.46 368.28,-536.2 368.28,-1045.69 0,-25.19 20.61,-61.75 50.57,-81.76 l 4.37,-74.13 c -14.59,-5.16 -25.06,-19.08 -25.06,-35.43 0,-17.9 12.54,-32.88 29.31,-36.65 l 2.62,-44.27 c -14.27,-5.33 -24.43,-19.08 -24.43,-35.2 0,-17.67 12.21,-32.49 28.65,-36.5 l 2.64,-44.69 c -13.92,-5.5 -23.77,-19.08 -23.77,-34.95 0,-17.42 11.88,-32.08 27.98,-36.32 l 2.26,-38.31 c 2.13,-36.32 43.07,-66.13 94.62,-66.13 h 426.38 c 51.55,0 92.52,30.3 94.63,66.13 l 4.06,68.89 c 15.17,4.83 26.17,19.03 26.17,35.79 0,15.2 -9.05,28.3 -22.04,34.21 l 2.71,45.93 c 15.51,4.62 26.83,19 26.83,36 0,15.45 -9.34,28.72 -22.67,34.49 l 2.68,45.43 c 15.86,4.39 27.52,18.94 27.52,36.2 0,15.7 -9.65,29.16 -23.34,34.77 l 2.64,44.74 c 29.94,19.99 50.54,56.52 50.54,81.76 0,509.51 368.3,577.23 368.3,1045.69 0,414.81 -336.42,751.21 -751.23,751.21 z m -248.62,-2022.59 498.66,23.74 -2.4,-40.82 -493.84,-24.09 -2.42,41.17 z m 503.11,99.07 -507.54,-24.16 -3.22,54.6 h 512.56 l -1.8,-30.44 z m -496.27,-215.15 484.97,23.66 -2.4,-40.84 -480.14,-24.01 -2.43,41.19 z m 6.85,-116.09 471.27,23.56 -2.99,-50.66 c -5.74,-3.02 -15.16,-4.27 -20.15,-4.27 h -426.38 c -4.93,0 -14.37,1.19 -20.15,4.14 l -1.6,27.23 z m 542.74,460.42 c -2.38,-7.3 -13.57,-21.89 -19.51,-23.62 L 2551.2,2085 c -7.08,1.85 -17.75,16.38 -20.11,23.71 -0.54,271.26 -86.49,407.73 -227.5,623.95 -90.56,138.85 -140.78,249.18 -140.78,419.15 0,373.36 302.74,676.08 676.1,676.08 373.35,0 676.1,-302.74 676.1,-676.08 0,-169.96 -50.21,-280.28 -140.78,-419.14 -141,-216.21 -226.97,-352.68 -227.51,-623.99" style="fill-opacity: 1; fill-rule: evenodd; stroke: none; fill: rgb(212, 211, 228);" id="path16"/>
    </g>
  </g>
  <rect y="251.539" width="87.727" height="228.046" style="stroke: rgb(0, 0, 0); fill: rgb(212, 211, 228); paint-order: stroke; stroke-opacity: 0;" x="335.365" transform="matrix(1, 0, 0, 1, -7.105427357601002e-15, 0)"/>
  <path d="M 472.229 332.231 C 472.229 351.138 466.394 368.714 456.386 383.335 C 456.773 385.677 456.749 388.372 455.983 391.565 C 453.2 403.173 436.161 435.21 427.486 442.059 C 422.554 445.954 417.486 445.107 413.488 444.059 C 409.732 443.073 405.787 440.056 403.989 436.56 C 402.029 432.746 401.774 427.384 402.989 421.561 C 403.028 421.374 403.071 421.182 403.118 420.985 C 395.108 423.146 386.67 424.301 377.956 424.301 C 369.887 424.301 362.054 423.311 354.579 421.448 C 355.248 422.667 355.815 423.601 356.257 424.151 C 357.32 425.476 357.58 424.605 358.257 425.651 C 359.552 427.652 362.657 433.097 362.256 437.649 C 361.759 443.298 357.305 453.509 352.757 457.147 C 348.803 460.311 342.14 460.898 337.759 460.147 C 333.738 459.456 329.387 457.057 327.261 453.647 C 324.894 449.854 325.195 441.332 325.261 437.649 C 325.302 435.326 326.976 435.133 326.261 432.65 C 324.776 427.498 311.016 413.855 308.263 406.653 C 306.332 401.6 306.205 397.329 307.263 393.655 C 307.299 393.529 307.339 393.402 307.383 393.276 C 292.636 377.028 283.683 355.651 283.683 332.231 C 283.683 281.382 325.89 240.161 377.956 240.161 C 430.022 240.161 472.229 281.382 472.229 332.231 Z" style="stroke: rgb(0, 0, 0); fill: rgb(212, 211, 228); stroke-opacity: 0;" transform="matrix(1, 0, 0, 1, -7.105427357601002e-15, 0)"/>
</svg>